<?xml version="1.0" standalone="no"?>
<!DOCTYPE svg PUBLIC "-//W3C//DTD SVG 1.1//EN" "http://www.w3.org/Graphics/SVG/1.1/DTD/svg11.dtd">
<svg width="100%" height="100%" viewBox="0 0 24 24" version="1.1" xmlns="http://www.w3.org/2000/svg" xmlns:xlink="http://www.w3.org/1999/xlink" xml:space="preserve" style="fill-rule:evenodd;clip-rule:evenodd;stroke-linecap:round;stroke-miterlimit:1.41421;">
    <g transform="matrix(2,0,0,2,-8,-12)">
        <path d="M10,6L11.577,7.146L13.527,7.146L14.129,9L15.706,10.146L15.104,12L15.706,13.854L14.129,15L13.527,16.854L11.577,16.854L10,18L8.423,16.854L6.473,16.854L5.871,15L4.294,13.854L4.896,12L4.294,10.146L5.871,9L6.473,7.146L8.423,7.146L10,6Z" style="fill:rgb(60,175,145);"/>
    </g>
    <g transform="matrix(1,0,0,1,-0.88562,-0.5)">
        <path d="M7.771,12.771L11,16L18,9" style="fill:none;stroke-width:1.5px;stroke:white;"/>
    </g>
</svg>
