<?xml version="1.0" encoding="UTF-8"?>
<svg width="80px" height="80px" viewBox="0 0 80 80" version="1.1" xmlns="http://www.w3.org/2000/svg" xmlns:xlink="http://www.w3.org/1999/xlink">
    <title>search</title>
    <g id="Nomadx-UI/UX" stroke="none" stroke-width="1" fill="none" fill-rule="evenodd">
        <g id="Gift-card---Detail-1" transform="translate(-140.000000, -459.000000)">
            <g id="search" transform="translate(140.000000, 459.000000)">
                <rect id="Rectangle" stroke="#464E6E" x="0.5" y="0.5" width="79" height="79" rx="16"></rect>
                <rect id="Rectangle" fill="#464E6E" x="15" y="16" width="50" height="6" rx="3"></rect>
                <rect id="Rectangle-Copy" fill="#464E6E" x="15" y="30" width="50" height="6" rx="3"></rect>
                <rect id="Rectangle-Copy-2" fill="#464E6E" x="15" y="44" width="50" height="6" rx="3"></rect>
                <rect id="Rectangle-Copy-3" fill="#464E6E" x="15" y="58" width="34" height="6" rx="3"></rect>
                <g transform="translate(53.000000, 53.000000) rotate(45.000000) translate(-53.000000, -53.000000) translate(32.000000, 37.000000)" stroke="#FFFFFF">
                    <circle id="Oval" fill-opacity="0.2" fill="#FFFFFF" cx="16" cy="16" r="15.5"></circle>
                    <path d="M31.5,14 L40,14 C41.1045695,14 42,14.8954305 42,16 C42,17.1045695 41.1045695,18 40,18 L31.5,18 L31.5,14 Z" id="Path" stroke-linecap="round"></path>
                </g>
            </g>
        </g>
    </g>
</svg>