<?xml version="1.0" standalone="no"?>
<!DOCTYPE svg PUBLIC "-//W3C//DTD SVG 1.1//EN" "http://www.w3.org/Graphics/SVG/1.1/DTD/svg11.dtd">
<svg width="100%" height="100%" viewBox="0 0 24 24" version="1.1" xmlns="http://www.w3.org/2000/svg" xmlns:xlink="http://www.w3.org/1999/xlink" xml:space="preserve" style="fill-rule:evenodd;clip-rule:evenodd;stroke-linecap:round;stroke-linejoin:round;stroke-miterlimit:1.41421;">
    <g id="Layer1">
        <path d="M16.28,5.58L16.871,5.77C18.162,6.27 19.373,6.973 20.448,7.844C21.318,8.549 22.099,9.364 22.766,10.264C23.068,10.672 23.344,11.098 23.599,11.537L23.652,11.629C23.683,11.69 23.693,11.705 23.714,11.771C23.762,11.919 23.762,12.081 23.714,12.229C23.693,12.295 23.683,12.31 23.652,12.371C23.58,12.497 23.507,12.621 23.433,12.745C22.921,13.578 22.325,14.355 21.646,15.059C20.101,16.658 18.157,17.859 16.034,18.523C14.877,18.886 13.677,19.083 12.466,19.129C12.311,19.134 12.155,19.136 12,19.137C11.575,19.135 11.151,19.117 10.728,19.078C9.865,18.997 9.01,18.833 8.179,18.588L7.721,18.419L8.579,17.132C9.513,17.421 10.493,17.58 11.482,17.626C11.654,17.633 11.827,17.636 12,17.637C13.116,17.632 14.227,17.484 15.301,17.177C17.264,16.616 19.07,15.542 20.5,14.085C21.107,13.467 21.641,12.782 22.101,12.047L22.13,12C21.415,10.836 20.497,9.8 19.429,8.949C18.467,8.183 17.387,7.568 16.237,7.133L15.403,6.895L16.28,5.58Z" style="fill:rgb(6,17,39);"/>
        <path d="M6.238,16.143L5.408,17.387C4.217,16.743 3.135,15.896 2.205,14.901C1.512,14.16 0.91,13.341 0.401,12.463L0.348,12.371C0.317,12.31 0.307,12.295 0.286,12.229C0.238,12.081 0.238,11.919 0.286,11.771C0.307,11.705 0.317,11.69 0.348,11.629C0.42,11.503 0.493,11.379 0.567,11.255C0.833,10.823 1.119,10.405 1.431,10.005C2.097,9.15 2.868,8.377 3.721,7.709C4.958,6.74 6.365,5.992 7.86,5.51C9.733,4.907 11.737,4.724 13.683,4.975L12.727,6.409C11.31,6.3 9.874,6.464 8.509,6.879C7.173,7.285 5.912,7.929 4.799,8.772C4.033,9.353 3.337,10.027 2.734,10.776C2.452,11.126 2.192,11.492 1.95,11.871L1.899,11.953L1.87,12C1.947,12.125 2.027,12.249 2.108,12.371C2.573,13.063 3.106,13.707 3.705,14.289C4.465,15.026 5.325,15.659 6.238,16.143Z" style="fill:rgb(6,17,39);"/>
        <path d="M14.628,8.057L15.193,8.485C15.616,8.869 15.969,9.329 16.23,9.838C16.443,10.253 16.594,10.7 16.676,11.16C16.761,11.636 16.773,12.125 16.712,12.604C16.653,13.07 16.523,13.527 16.33,13.955C15.905,14.895 15.171,15.683 14.264,16.176C13.82,16.417 13.337,16.587 12.84,16.676C12.642,16.711 12.444,16.731 12.244,16.744C12.122,16.749 12.122,16.749 12,16.75C11.798,16.747 11.597,16.737 11.396,16.712C10.892,16.648 10.399,16.502 9.941,16.281L9.397,15.904L10.212,14.681L10.384,14.82C10.682,14.991 11.008,15.115 11.345,15.184C11.479,15.211 11.613,15.228 11.749,15.24C11.833,15.246 11.916,15.249 12,15.25C12.139,15.248 12.277,15.241 12.414,15.224C12.759,15.18 13.095,15.08 13.408,14.93C14.313,14.493 14.982,13.64 15.184,12.655C15.256,12.304 15.269,11.941 15.224,11.586C15.183,11.267 15.095,10.956 14.963,10.664C14.801,10.307 14.575,9.98 14.298,9.702L13.774,9.34L14.628,8.057Z" style="fill:rgb(6,17,39);"/>
        <path d="M8.778,12.333L7.706,13.941L7.347,12.956C7.242,12.444 7.222,11.915 7.288,11.396C7.347,10.93 7.477,10.473 7.67,10.045C7.906,9.524 8.237,9.046 8.642,8.642C9.046,8.237 9.524,7.906 10.045,7.67C10.621,7.41 11.247,7.267 11.878,7.251L12.152,7.272L11.044,8.934L10.809,8.975C10.444,9.119 10.106,9.331 9.816,9.595C9.526,9.858 9.284,10.173 9.105,10.522C8.96,10.805 8.857,11.111 8.801,11.424L8.778,12.333Z" style="fill:rgb(6,17,39);"/>
        <g transform="matrix(1,0,0,1,-0.8,0)">
            <path d="M6,21L18,3" style="fill:none;stroke-width:1.5px;stroke:rgb(6,17,39);"/>
        </g>
    </g>
</svg>
