<svg width="24" height="24" viewBox="0 0 24 24">
  <path d="M24 12.0709C23.9997 9.77768 23.3424 7.53257 22.1058 5.60135C20.8692 3.67013 19.1051 2.13368 17.0225 1.17388C14.9398 0.214091 12.6257 -0.128845 10.3542 0.185675C8.08263 0.500195 5.94878 1.459 4.20524 2.94858C2.4617 4.43816 1.18149 6.39613 0.516158 8.5907C-0.149172 10.7853 -0.171753 13.1245 0.451088 15.3315C1.07393 17.5385 2.31611 19.5208 4.03057 21.0438C5.74503 22.5668 7.85996 23.5666 10.125 23.9249V15.5399H7.078V12.0699H10.125V9.42788C10.125 6.42088 11.917 4.75788 14.657 4.75788C15.557 4.77188 16.455 4.84988 17.344 4.99288V7.94688H15.83C15.5721 7.91267 15.3098 7.93693 15.0626 8.01785C14.8153 8.09877 14.5895 8.23429 14.4017 8.41436C14.214 8.59443 14.0691 8.81445 13.9779 9.0581C13.8868 9.30175 13.8516 9.56279 13.875 9.82188V12.0719H17.2L16.668 15.5409H13.868V23.9259C16.6922 23.4808 19.2647 22.042 21.1223 19.8686C22.9798 17.6952 24.0003 14.9299 24 12.0709Z"/>
</svg>
