<?xml version="1.0" standalone="no"?>
<!DOCTYPE svg PUBLIC "-//W3C//DTD SVG 1.1//EN" "http://www.w3.org/Graphics/SVG/1.1/DTD/svg11.dtd">
<svg width="100%" height="100%" viewBox="0 0 99 27" version="1.1" xmlns="http://www.w3.org/2000/svg" xmlns:xlink="http://www.w3.org/1999/xlink" xml:space="preserve" style="fill-rule:evenodd;clip-rule:evenodd;stroke-linejoin:round;stroke-miterlimit:1.41421;">
    <g id="Layer1" transform="matrix(1,0,0,1,-248.053,-251.25)">
        <path d="M248.276,268.845L248.276,253.105L248.623,253.105L258.118,262L258.118,253.599L261.472,253.599L261.472,269.423L261.157,269.423L251.63,260.528L251.63,268.845L248.276,268.845Z" style="fill:white;fill-rule:nonzero;"/>
        <path d="M282.385,268.845L285.55,253.105L285.813,253.105L291.564,263.031L296.99,253.105L297.263,253.105L300.449,268.845L296.99,268.845L295.697,261.885L291.606,269.402L291.364,269.402L286.969,261.779L285.634,268.845L282.385,268.845Z" style="fill:white;fill-rule:nonzero;"/>
        <path d="M305.98,263.998L309.987,263.998L308.009,259.224L305.98,263.998ZM300.281,268.845L308.052,253.125L308.282,253.125L315.884,268.845L312.078,268.845L311.112,266.626L304.928,266.626L303.94,268.845L300.281,268.845Z" style="fill:white;fill-rule:nonzero;"/>
        <path d="M320.627,265.574L321.427,265.574C323.018,265.574 324.262,265.189 325.158,264.418C326.056,263.647 326.504,262.581 326.504,261.221C326.504,259.862 326.056,258.792 325.158,258.014C324.262,257.236 323.018,256.847 321.427,256.847L320.627,256.847L320.627,265.574ZM317.031,268.844L317.031,253.598L321.079,253.598C323.925,253.598 326.153,254.278 327.767,255.638C329.379,256.998 330.185,258.859 330.185,261.221C330.185,262.637 329.865,263.893 329.228,264.991C328.59,266.088 327.654,266.991 326.42,267.698C325.72,268.105 324.957,268.397 324.134,268.576C323.31,268.755 322.291,268.844 321.079,268.844L317.031,268.844Z" style="fill:white;fill-rule:nonzero;"/>
        <path d="M331.151,268.845L336.63,260.959L331.225,253.599L335.672,253.599L338.817,257.952L341.771,253.599L345.736,253.599L340.825,260.644L346.829,268.845L342.35,268.845L338.648,263.672L335.137,268.845L331.151,268.845Z" style="fill:white;fill-rule:nonzero;"/>
        <path d="M266.002,255.308L268.508,257.814C267.804,258.64 267.348,259.683 267.257,260.828L263.711,260.828C263.812,258.708 264.662,256.782 266.002,255.308M281.372,260.828L277.826,260.828C277.735,259.683 277.279,258.64 276.575,257.814L279.082,255.308C280.421,256.782 281.272,258.708 281.372,260.828M279.082,267.193L276.575,264.686C277.279,263.861 277.735,262.818 277.826,261.673L281.372,261.673C281.272,263.792 280.421,265.719 279.082,267.193M272.964,266.535C274.109,266.444 275.152,265.988 275.978,265.284L278.484,267.79C277.011,269.13 275.084,269.98 272.964,270.08L272.964,266.535ZM269.106,265.284C269.931,265.988 270.975,266.444 272.119,266.535L272.119,270.08C270,269.98 268.073,269.13 266.599,267.79L269.106,265.284ZM272.542,256.952C274.912,256.952 276.84,258.88 276.84,261.25C276.84,263.621 274.912,265.549 272.542,265.549C270.171,265.549 268.243,263.621 268.243,261.25C268.243,258.88 270.171,256.952 272.542,256.952M272.119,255.966C270.975,256.057 269.931,256.513 269.106,257.217L266.599,254.711C268.073,253.371 270,252.52 272.119,252.42L272.119,255.966ZM275.978,257.217C275.152,256.513 274.109,256.057 272.964,255.966L272.964,252.42C275.084,252.52 277.011,253.371 278.484,254.711L275.978,257.217ZM263.711,261.673L267.257,261.673C267.348,262.818 267.804,263.861 268.508,264.686L266.002,267.193C264.662,265.719 263.812,263.792 263.711,261.673M272.542,271.094C277.969,271.094 282.385,266.678 282.385,261.25C282.385,255.823 277.969,251.407 272.542,251.407C267.114,251.407 262.698,255.823 262.698,261.25C262.698,266.678 267.114,271.094 272.542,271.094" style="fill:rgb(47,210,215);fill-rule:nonzero;"/>
        <g>
            <g transform="matrix(1,0,0,1,328.643,276.721)">
                <text x="0px" y="0px" style="font-family:Arial;font-size:6.476px;fill:white;">W<tspan x="5.872px " y="0px ">a</tspan></text>
            </g>
            <g transform="matrix(1,0,0,1,338.357,276.721)">
                <text x="0px" y="0px" style="font-family:Arial;font-size:6.476px;fill:white;">llet</text>
            </g>
        </g>
    </g>
</svg>
