<?xml version="1.0" standalone="no"?>
<!DOCTYPE svg PUBLIC "-//W3C//DTD SVG 1.1//EN" "http://www.w3.org/Graphics/SVG/1.1/DTD/svg11.dtd">
<svg width="100%" height="100%" viewBox="0 0 14 14" version="1.1" xmlns="http://www.w3.org/2000/svg" xmlns:xlink="http://www.w3.org/1999/xlink" xml:space="preserve" style="fill-rule:evenodd;clip-rule:evenodd;stroke-linejoin:round;stroke-miterlimit:1.41421;">
    <path d="M7,8.121C6.341,8.773 5.675,9.418 5.002,10.057C4.881,10.161 4.744,10.222 4.587,10.245C4.548,10.249 4.548,10.248 4.51,10.25C4.379,10.248 4.254,10.22 4.139,10.157C3.838,9.992 3.685,9.631 3.777,9.3C3.809,9.186 3.867,9.087 3.943,8.998C4.582,8.325 5.227,7.659 5.879,7C5.227,6.341 4.582,5.675 3.943,5.002C3.867,4.913 3.809,4.814 3.777,4.7C3.753,4.613 3.745,4.522 3.753,4.432C3.784,4.09 4.054,3.806 4.394,3.758C4.471,3.747 4.549,3.748 4.625,3.76C4.767,3.785 4.893,3.85 5.002,3.943C5.675,4.582 6.341,5.227 7,5.879C7.659,5.227 8.325,4.582 8.998,3.943C9.087,3.867 9.186,3.809 9.3,3.777C9.387,3.753 9.478,3.745 9.568,3.753C9.91,3.784 10.194,4.054 10.242,4.394C10.253,4.471 10.252,4.549 10.24,4.625C10.215,4.767 10.15,4.893 10.057,5.002C9.418,5.675 8.773,6.341 8.121,7C8.773,7.659 9.418,8.325 10.057,8.998C10.133,9.087 10.191,9.186 10.223,9.3C10.311,9.617 10.175,9.965 9.894,10.138C9.805,10.193 9.708,10.225 9.606,10.242C9.567,10.247 9.529,10.249 9.49,10.25C9.439,10.248 9.388,10.243 9.337,10.232C9.209,10.204 9.097,10.142 8.998,10.057C8.325,9.418 7.659,8.773 7,8.121Z" style="fill:white;"/>
</svg>
