<?xml version="1.0" standalone="no"?>
<!DOCTYPE svg PUBLIC "-//W3C//DTD SVG 1.1//EN" "http://www.w3.org/Graphics/SVG/1.1/DTD/svg11.dtd">
<svg width="100%" height="100%" viewBox="0 0 48 24" version="1.1" xmlns="http://www.w3.org/2000/svg" xmlns:xlink="http://www.w3.org/1999/xlink" xml:space="preserve" style="fill-rule:evenodd;clip-rule:evenodd;stroke-linejoin:round;stroke-miterlimit:1.41421;">
    <g transform="matrix(1.47794,-5.24042e-18,-5.24042e-18,1.49933,-6.11741,-5.99201)">
        <path d="M13.672,11.501C13.598,11.5 13.523,11.5 13.501,11.499C13.372,11.497 13.243,11.497 13.114,11.498C12.954,11.5 12.795,11.504 12.635,11.51C12.211,11.531 11.789,11.571 11.372,11.651C11.131,11.696 10.893,11.758 10.663,11.843C10.328,11.966 9.936,12.174 9.726,12.403C9.535,12.611 9.348,12.892 9.292,12.993C9.248,13.071 9.213,13.153 9.175,13.235C8.982,13.654 8.877,14.11 8.818,14.567C8.8,14.705 8.802,14.705 8.786,14.843C8.756,15.101 8.728,15.358 8.712,15.616C8.695,15.874 8.691,16.132 8.682,16.39C8.677,16.594 8.673,16.798 8.672,17.003C8.513,16.78 8.355,16.557 8.209,16.326C8.032,16.049 7.862,15.767 7.703,15.478C7.631,15.347 7.558,15.216 7.495,15.081C7.188,14.43 6.955,13.737 6.865,13.021C6.849,12.896 6.847,12.766 6.846,12.64C6.843,12.362 6.863,12.083 6.915,11.811C6.935,11.704 6.966,11.598 6.998,11.494C7.077,11.232 7.185,10.983 7.311,10.741L7.33,10.707C7.486,10.488 7.661,10.285 7.854,10.099C7.983,9.976 8.12,9.86 8.263,9.753C9.171,9.073 10.296,8.753 11.407,8.607C11.584,8.584 11.762,8.565 11.94,8.55C12.223,8.525 12.507,8.51 12.791,8.503C13.044,8.496 13.388,8.496 13.672,8.5L13.672,6.997L17.672,9.997L13.672,12.997L13.672,11.501Z" style="fill:none;stroke-width:1.01px;stroke:rgb(181,188,202);"/>
    </g>
    <g transform="matrix(1.47794,-5.24042e-18,-5.24042e-18,1.49933,17.8826,-5.99201)">
        <path d="M13.672,11.501C13.598,11.5 13.523,11.5 13.501,11.499C13.372,11.497 13.243,11.497 13.114,11.498C12.954,11.5 12.795,11.504 12.635,11.51C12.211,11.531 11.789,11.571 11.372,11.651C11.131,11.696 10.893,11.758 10.663,11.843C10.328,11.966 9.936,12.174 9.726,12.403C9.535,12.611 9.348,12.892 9.292,12.993C9.248,13.071 9.213,13.153 9.175,13.235C8.982,13.654 8.877,14.11 8.818,14.567C8.8,14.705 8.802,14.705 8.786,14.843C8.756,15.101 8.728,15.358 8.712,15.616C8.695,15.874 8.691,16.132 8.682,16.39C8.677,16.594 8.673,16.798 8.672,17.003C8.513,16.78 8.355,16.557 8.209,16.326C8.032,16.049 7.862,15.767 7.703,15.478C7.631,15.347 7.558,15.216 7.495,15.081C7.188,14.43 6.955,13.737 6.865,13.021C6.849,12.896 6.847,12.766 6.846,12.64C6.843,12.362 6.863,12.083 6.915,11.811C6.935,11.704 6.966,11.598 6.998,11.494C7.077,11.232 7.185,10.983 7.311,10.741L7.33,10.707C7.486,10.488 7.661,10.285 7.854,10.099C7.983,9.976 8.12,9.86 8.263,9.753C9.171,9.073 10.296,8.753 11.407,8.607C11.584,8.584 11.762,8.565 11.94,8.55C12.223,8.525 12.507,8.51 12.791,8.503C13.044,8.496 13.388,8.496 13.672,8.5L13.672,6.997L17.672,9.997L13.672,12.997L13.672,11.501Z" style="fill:none;stroke-width:1.01px;stroke:black;"/>
    </g>
</svg>
