<?xml version="1.0" encoding="UTF-8" standalone="no"?>
<!DOCTYPE svg PUBLIC "-//W3C//DTD SVG 1.1//EN" "http://www.w3.org/Graphics/SVG/1.1/DTD/svg11.dtd">
<svg width="100%" height="100%" viewBox="0 0 48 24" version="1.1" xmlns="http://www.w3.org/2000/svg" xmlns:xlink="http://www.w3.org/1999/xlink" xml:space="preserve" style="fill-rule:evenodd;clip-rule:evenodd;stroke-linecap:round;stroke-linejoin:round;stroke-miterlimit:1.41421;"><script xmlns=""/>
    <g id="Layer1">
        <g id="eye">
            <g transform="matrix(1.25,0,0,1.25,-3,-12.6087)">
                <path d="M18.455,19.687C17.01,21.704 14.655,23 12,23C9.373,23 7.04,21.731 5.545,19.687C7.04,17.643 9.373,16.374 12,16.374L12.98,16.434C15.231,16.711 17.191,17.923 18.455,19.687Z" style="fill:none;stroke-width:1.2px;stroke:rgb(181,188,202);"/>
            </g>
            <g transform="matrix(1,0,0,1,1,1)">
                <circle cx="11" cy="11" r="2" style="fill:none;stroke-width:1.5px;stroke:rgb(181,188,202);"/>
            </g>
        </g>
        <g id="eye1" transform="matrix(1,0,0,1,24,8.88178e-16)">
            <g transform="matrix(1.25,0,0,1.25,-3,-12.6087)">
                <path d="M18.455,19.687C17.01,21.704 14.655,23 12,23C9.373,23 7.04,21.731 5.545,19.687C7.04,17.643 9.373,16.374 12,16.374L12.98,16.434C15.231,16.711 17.191,17.923 18.455,19.687Z" style="fill:none;stroke-width:1.2px;stroke:black;"/>
            </g>
            <g transform="matrix(1,0,0,1,1,1)">
                <circle cx="11" cy="11" r="2" style="fill:none;stroke-width:1.5px;stroke:black;"/>
            </g>
        </g>
    </g>
<script xmlns=""/></svg>