<svg id="visual" viewBox="0 0 900 450" width="900" height="450" xmlns="http://www.w3.org/2000/svg" xmlns:xlink="http://www.w3.org/1999/xlink" version="1.1"><path d="M0 387L50 379.8C100 372.7 200 358.3 300 353.3C400 348.3 500 352.7 600 353.2C700 353.7 800 350.3 850 348.7L900 347L900 451L850 451C800 451 700 451 600 451C500 451 400 451 300 451C200 451 100 451 50 451L0 451Z" fill="#8863f1"></path><path d="M0 383L50 385.8C100 388.7 200 394.3 300 391.5C400 388.7 500 377.3 600 377.2C700 377 800 388 850 393.5L900 399L900 451L850 451C800 451 700 451 600 451C500 451 400 451 300 451C200 451 100 451 50 451L0 451Z" fill="#7866f1"></path><path d="M0 387L50 390.3C100 393.7 200 400.3 300 406.2C400 412 500 417 600 418.7C700 420.3 800 418.7 850 417.8L900 417L900 451L850 451C800 451 700 451 600 451C500 451 400 451 300 451C200 451 100 451 50 451L0 451Z" fill="#6669f1"></path></svg>